<svg width="17" height="17" viewBox="0 0 17 17" fill="none" xmlns="http://www.w3.org/2000/svg">
<g clip-path="url(#clip0_757_565)">
<path d="M6.57812 9.37061V16.3706H9.6875V9.37061H12.0156L12.4531 6.47998H9.6875V4.60498C9.6875 4.20915 9.80469 3.84977 10.0391 3.52686C10.2734 3.20394 10.6979 3.04248 11.3125 3.04248H12.5781V0.57373C12.5781 0.57373 12.3411 0.539876 11.8672 0.472168C11.3932 0.40446 10.8854 0.370605 10.3438 0.370605C9.77083 0.370605 9.25521 0.459147 8.79688 0.63623C8.33854 0.802897 7.94531 1.05029 7.61719 1.37842C7.28906 1.70654 7.03125 2.1154 6.84375 2.60498C6.66667 3.09456 6.57812 3.65186 6.57812 4.27686V6.47998H4.0625V9.37061H6.57812Z" fill="white"/>
</g>
<defs>
<clipPath id="clip0_757_565">
<rect width="16" height="16" fill="white" transform="matrix(1 0 0 -1 0.5 16.0425)"/>
</clipPath>
</defs>
</svg>
